<svg xmlns="http://www.w3.org/2000/svg" width="390" height="844" viewBox="0 0 390 844">
<rect width="390" height="844" fill="#F7F8FA"/>

<style>
  text { font-family: -apple-system,BlinkMacSystemFont,'Hiragino Sans','Noto Sans JP',sans-serif; fill:#202227; }
  .muted { fill:#747982; }
  .accent { fill:#7569E6; }
  .card { fill:#FFFFFF; stroke:#E9EBEF; stroke-width:1; }
  .small { font-size:12px; }
  .body { font-size:16px; }
  .title { font-size:28px; font-weight:700; }
  .section { font-size:20px; font-weight:700; }
  .bold { font-weight:700; }
</style>
<text x="24" y="38" class="small bold">9:41</text><path d="M31 74l-7 7 7 7" fill="none" stroke="#7569E6" stroke-width="2.5"/><text x="45" y="86" font-size="24" class="bold">英語学習</text><text x="24" y="108" class="muted small">直近12回の実績</text>
<rect x="18" y="132" width="354" height="136" rx="20" class="card"/><text x="34" y="160" class="body bold">予定成功率</text><text x="34" y="208" font-size="36" class="accent bold">68%</text><text x="34" y="230" class="muted small">予定した時間枠で実行できた割合</text><rect x="275" y="160" width="70" height="58" rx="16" fill="#EBE7FC"/><text x="310" y="187" text-anchor="middle" font-size="18" class="accent bold">12回</text><text x="310" y="205" text-anchor="middle" class="muted small">記録</text>
<text x="24" y="308" class="section">成功しやすい曜日</text>
<text x="28" y="342" class="body bold">土</text><rect x="65" y="331" width="252" height="12" rx="6" fill="#E7E9ED"/><rect x="65" y="331" width="207" height="12" rx="6" fill="#7569E6"/><text x="352" y="342" text-anchor="end" class="body bold">82%</text>
<text x="28" y="378" class="body bold">日</text><rect x="65" y="367" width="252" height="12" rx="6" fill="#E7E9ED"/><rect x="65" y="367" width="186" height="12" rx="6" fill="#7569E6"/><text x="352" y="378" text-anchor="end" class="body bold">74%</text>
<text x="28" y="414" class="body bold">水</text><rect x="65" y="403" width="252" height="12" rx="6" fill="#E7E9ED"/><rect x="65" y="403" width="154" height="12" rx="6" fill="#7569E6"/><text x="352" y="414" text-anchor="end" class="body bold">61%</text>
<text x="28" y="450" class="body bold">月</text><rect x="65" y="439" width="252" height="12" rx="6" fill="#E7E9ED"/><rect x="65" y="439" width="101" height="12" rx="6" fill="#7569E6"/><text x="352" y="450" text-anchor="end" class="body bold">40%</text>
<text x="24" y="500" class="section">成功しやすい時間帯</text>
<text x="28" y="534" class="body bold">午前</text><rect x="65" y="523" width="252" height="12" rx="6" fill="#E7E9ED"/><rect x="65" y="523" width="207" height="12" rx="6" fill="#5CB391"/><text x="352" y="534" text-anchor="end" class="body bold">82%</text>
<text x="28" y="570" class="body bold">昼</text><rect x="65" y="559" width="252" height="12" rx="6" fill="#E7E9ED"/><rect x="65" y="559" width="146" height="12" rx="6" fill="#5CB391"/><text x="352" y="570" text-anchor="end" class="body bold">58%</text>
<text x="28" y="606" class="body bold">夜</text><rect x="65" y="595" width="252" height="12" rx="6" fill="#E7E9ED"/><rect x="65" y="595" width="83" height="12" rx="6" fill="#5CB391"/><text x="352" y="606" text-anchor="end" class="body bold">33%</text>
<rect x="18" y="645" width="354" height="128" rx="20" class="card"/><text x="34" y="675" class="accent bold" font-size="15">おすすめ</text><text x="34" y="709" class="section">土曜 10:00 が</text><text x="34" y="734" class="section">続けやすそうです</text><rect x="34" y="744" width="322" height="22" rx="10" fill="#7569E6"/><text x="195" y="760" text-anchor="middle" fill="#fff" font-size="12" font-weight="700">この時間で予定する</text>
<rect x="18" y="798" width="354" height="36" rx="18" fill="#fff" stroke="#E9EBEF"/>
<path d="M86 816l9-8 9 8v8H86z" fill="none" stroke="#747982" stroke-width="1.5"/><text x="95" y="829" font-size="11" text-anchor="middle" class="muted">Today</text>
<path d="M187 808h20M187 816h20M187 824h20" stroke="#747982" stroke-width="1.5"/><text x="197" y="829" font-size="11" text-anchor="middle" class="muted">Tasks</text>
<path d="M293 822v-9M301 822v-15M309 822v-22" stroke="#7569E6" stroke-width="2"/><text x="301" y="829" font-size="11" text-anchor="middle" class="accent bold">Insights</text>
</svg>