<svg xmlns="http://www.w3.org/2000/svg" width="390" height="844" viewBox="0 0 390 844">
<rect width="390" height="844" fill="#F7F8FA"/>

<style>
  text { font-family: -apple-system,BlinkMacSystemFont,'Hiragino Sans','Noto Sans JP',sans-serif; fill:#202227; }
  .muted { fill:#747982; }
  .accent { fill:#7569E6; }
  .card { fill:#FFFFFF; stroke:#E9EBEF; stroke-width:1; }
  .small { font-size:12px; }
  .body { font-size:16px; }
  .title { font-size:28px; font-weight:700; }
  .section { font-size:20px; font-weight:700; }
  .bold { font-weight:700; }
</style>
<text x="24" y="38" class="small bold">9:41</text>
<text x="24" y="78" class="accent bold" font-size="13">TechAssistantPocket</text>
<text x="24" y="99" class="muted small">やることも、予定も、ひとつに。</text>
<rect x="331" y="60" width="35" height="35" rx="12" fill="#7569E6"/><path d="M348.5 70v15M341 77.5h15" stroke="#fff" stroke-width="2.4" stroke-linecap="round"/>
<text x="24" y="144" class="title">Today</text>
<text x="24" y="164" class="muted small">9月19日 土曜日</text>
<rect x="18" y="185" width="354" height="360" rx="20" class="card"/>
<line x1="62" y1="224" x2="62" y2="493" stroke="#DADDE3" stroke-width="1.5"/>
<text x="28" y="231" class="muted small bold">10:00</text><circle cx="62" cy="225" r="5" fill="#EBE7FC"/><circle cx="84" cy="225" r="8" fill="#fff" stroke="#B7BBC4" stroke-width="1.5"/><text x="103" y="229" class="body bold">英語学習</text><text x="103" y="249" class="muted small">30分</text>
<line x1="103" y1="270" x2="348" y2="270" stroke="#F0F1F3"/>
<text x="28" y="306" class="muted small bold">12:00</text><circle cx="62" cy="300" r="5" fill="#FCECE2"/><rect x="76" y="291" width="17" height="17" rx="6" fill="#FCECE2"/><circle cx="84.5" cy="299.5" r="5" fill="none" stroke="#777C84"/><path d="M84.5 299.5v-3.5M84.5 299.5l3 2" stroke="#777C84" stroke-width="1"/><text x="103" y="304" class="body bold">友達と昼食</text><text x="103" y="324" class="muted small">渋谷</text>
<line x1="103" y1="345" x2="348" y2="345" stroke="#F0F1F3"/>
<text x="28" y="381" class="muted small bold">15:00</text><circle cx="62" cy="375" r="5" fill="#DBF4EC"/><circle cx="84" cy="375" r="8" fill="#fff" stroke="#B7BBC4" stroke-width="1.5"/><text x="103" y="379" class="body bold">MPC練習</text><text x="103" y="399" class="muted small">60分</text>
<line x1="103" y1="420" x2="348" y2="420" stroke="#F0F1F3"/>
<text x="28" y="456" class="muted small bold">18:30</text><circle cx="62" cy="450" r="5" fill="#E4EFFC"/><rect x="76" y="441" width="17" height="17" rx="6" fill="#E4EFFC"/><circle cx="84.5" cy="449.5" r="5" fill="none" stroke="#777C84"/><path d="M84.5 449.5v-3.5M84.5 449.5l3 2" stroke="#777C84" stroke-width="1"/><text x="103" y="454" class="body bold">映画</text><text x="103" y="474" class="muted small">TOHO新宿</text>
<text x="24" y="584" class="section">未スケジュール</text><text x="350" y="584" class="muted small" text-anchor="end">3件</text>
<rect x="24" y="601" width="342" height="56" rx="16" class="card"/><circle cx="42" cy="629" r="8" fill="#fff" stroke="#B7BBC4"/><text x="62" y="626" class="body bold">本を読む</text><text x="62" y="643" class="muted small">20分</text>
<rect x="24" y="665" width="342" height="56" rx="16" class="card"/><circle cx="42" cy="693" r="8" fill="#fff" stroke="#B7BBC4"/><text x="62" y="690" class="body bold">部屋の掃除</text><text x="62" y="707" class="muted small">30分</text>
<rect x="24" y="729" width="342" height="56" rx="16" class="card"/><circle cx="42" cy="757" r="8" fill="#fff" stroke="#B7BBC4"/><text x="62" y="754" class="body bold">資料を整理</text><text x="62" y="771" class="muted small">—</text>
<rect x="18" y="798" width="354" height="36" rx="18" fill="#fff" stroke="#E9EBEF"/>
<path d="M86 816l9-8 9 8v8H86z" fill="none" stroke="#7569E6" stroke-width="1.5"/><text x="95" y="829" font-size="11" text-anchor="middle" class="accent bold">Today</text>
<path d="M187 808h20M187 816h20M187 824h20" stroke="#747982" stroke-width="1.5"/><text x="197" y="829" font-size="11" text-anchor="middle" class="muted">Tasks</text>
<path d="M293 822v-9M301 822v-15M309 822v-22" stroke="#747982" stroke-width="2"/><text x="301" y="829" font-size="11" text-anchor="middle" class="muted">Insights</text>
</svg>